<svg xmlns="http://www.w3.org/2000/svg" width="3379" height="1065" viewBox="0 0 3379 1065" fill="none"><path d="M783.403 905.925H780.529C710.424 1023.3 614.53 1064.78 492.886 1064.78C338.307 1064.78 218.099 1008.97 133.663 915.945C49.2267 821.488 0.561523 689.823 0.561523 535.244C0.561523 364.934 60.6841 216.102 167.997 117.334C251.034 41.5187 359.785 -9.88544e-06 497.159 -9.88544e-06C754.779 -9.88544e-06 902.174 141.686 935.109 342.019H731.864C708.987 243.289 633.134 171.709 501.47 171.709C308.246 171.709 212.39 332.036 212.39 535.244C212.39 744.198 322.577 897.303 498.596 897.303C657.486 897.303 761.925 778.533 761.925 665.472V659.762H515.763V499.472H946.566V1043.3H790.55L783.403 905.925Z" fill="#292A27"/><path d="M1194.23 596.765H1520.52C1514.81 503.745 1453.25 439.35 1364.54 439.35C1261.5 439.35 1211.4 500.872 1194.23 596.765ZM999.609 675.492C999.609 457.954 1147 289.081 1361.67 289.081C1597.81 289.081 1723.76 469.373 1723.76 731.304H1191.36C1205.69 844.365 1268.65 914.508 1378.87 914.508C1454.69 914.508 1499.08 880.136 1520.52 824.324H1712.31C1685.12 954.552 1569.19 1064.78 1380.27 1064.78C1136.98 1064.78 999.609 894.467 999.609 675.492Z" fill="#292A27"/><path d="M2688.5 784.247V674.06C2654.17 694.101 2601.19 705.558 2552.53 717.015C2450.92 739.892 2400.82 762.807 2400.82 831.513C2400.82 900.182 2446.65 924.533 2515.32 924.533C2626.94 924.533 2688.5 855.827 2688.5 784.247ZM2687.06 961.741H2684.23C2646.98 1017.55 2594.04 1060.47 2468.09 1060.47C2317.82 1060.47 2211.91 981.744 2211.91 835.786C2211.91 674.06 2343.61 622.558 2506.73 599.644C2628.38 582.477 2684.23 572.418 2684.23 516.606C2684.23 463.668 2642.71 429.334 2561.11 429.334C2469.53 429.334 2425.17 462.231 2419.42 532.374H2246.28C2251.99 403.583 2347.88 290.522 2562.55 290.522C2782.96 290.522 2871.7 389.252 2871.7 560.999V934.516C2871.7 990.366 2880.29 1023.26 2897.46 1036.16V1043.3H2709.98C2698.52 1029.01 2691.37 994.639 2687.06 961.741Z" fill="#292A27"/><path d="M1950.78 309.111H1782.47V1043.29H1950.78V309.111Z" fill="#292A27"/><path d="M1992.69 421.461C1992.69 358.049 2037.88 309.119 2103.79 309.119C2169.69 309.119 2214.88 358.049 2214.88 421.461C2214.88 484.874 2169.69 533.804 2103.79 533.804C2037.88 533.804 1992.69 484.874 1992.69 421.461Z" fill="#292A27"/><path d="M3114.25 309.111H2948.59V1043.29H3114.25V309.111Z" fill="#292A27"/><path d="M3156.15 421.461C3156.15 358.049 3201.34 309.119 3267.24 309.119C3333.15 309.119 3378.34 358.049 3378.34 421.461C3378.34 484.874 3333.15 533.804 3267.24 533.804C3201.34 533.804 3156.15 484.874 3156.15 421.461Z" fill="#292A27"/></svg>